<svg width="179" height="105" viewBox="0 0 179 105" fill="none" xmlns="http://www.w3.org/2000/svg">
<g clip-path="url(#clip0_4_178)">
<path d="M27.3128 38.3748V42.3892C27.3128 46.2654 24.8267 46.8756 23.7175 47.1788V45.0219C25.5649 44.6842 25.6337 42.9994 25.6681 42.393H23.3159V38.3786H27.3166L27.3128 38.3748Z" fill="#5B5B5B"/>
<path d="M42.6043 29.5708L37.4294 34.7634L32.2544 29.5708L37.4294 24.3782L42.6043 29.5708ZM37.4294 26.0975L33.9679 29.5708L37.4294 33.0441L40.8908 29.5708L37.4294 26.0975Z" fill="#5B5B5B"/>
<path d="M55.0081 16.9941L54.136 20.736L57.6663 19.7228L58.1367 21.7453L54.3731 22.8583L56.5227 25.9286L54.7748 27.1759L52.6252 23.8024L49.6687 26.938L48.2917 25.4527L51.1144 22.5206L47.7869 20.8012L48.7966 19.0128L52.1242 20.6669L52.9962 16.9902H55.0119L55.0081 16.9941Z" fill="#5B5B5B"/>
<path d="M87.1707 29.4709C86.4976 28.3234 85.725 27.1759 84.9524 26.0975C81.9269 26.4007 76.4499 26.7384 75.574 26.7729C73.5239 26.9072 64.4821 27.3141 62.6347 27.4138C62.2637 27.9857 62.0304 28.358 61.56 28.358C61.1239 28.358 61.0551 27.8859 61.0551 27.6825L60.7185 23.906C61.996 23.906 64.3827 23.837 67.1021 23.8063C69.9592 19.7612 71.405 16.119 72.1776 13.8931L75.9412 15.1749C76.446 15.3438 76.511 15.4781 76.511 15.6815C76.511 16.1881 76.14 16.2533 75.0309 16.3915C74.0555 18.2452 72.1087 21.7185 70.663 23.7449C73.6884 23.7103 74.5948 23.6758 82.7952 23.4417C81.25 21.8566 79.2993 20.5748 78.1251 19.7995L80.9478 17.5083C84.4437 20.2063 87.4691 23.4417 89.8557 27.1874L87.1669 29.4825L87.1707 29.4709ZM81.4565 44.7149C81.4909 44.477 81.5253 43.4676 81.5559 43.2642H68.349C68.349 43.9051 68.3834 43.9704 68.4178 44.7149H64.9219C65.1247 41.848 65.1591 41.0382 65.1591 39.6912V35.174C65.1591 33.1514 65.0596 32.0039 64.8913 30.25C65.9661 30.3191 69.6303 30.4534 72.1164 30.4534H77.6279C79.8118 30.4534 81.4603 30.3536 84.8873 30.1502C84.8529 31.2287 84.7879 35.2431 84.7879 35.4465V39.4609C84.7879 39.7641 84.8223 42.0246 85.0556 44.7226H81.4603L81.4565 44.7149ZM81.5559 33.4163H68.349V40.4626H81.5559V33.4163Z" fill="#5B5B5B"/>
<path d="M115.466 21.2079H111.768V23.9405H115.497C116.537 23.9405 121.816 23.8714 123.326 23.8407C123.227 26.1319 123.227 26.4696 123.227 29.7088V40.094C123.227 42.8611 123.227 44.4769 118.993 44.4769C118.22 44.4769 117.849 44.4423 117.211 44.3771L115.933 40.9729C117.211 41.1763 118.721 41.3452 119.226 41.3452C120.133 41.3452 120.133 40.9077 120.133 39.8945V26.6424H116.572C115.899 28.3272 115.497 29.137 114.923 30.2154C117.211 30.2154 117.478 30.2154 118.35 30.1463V32.8443C116.973 32.7445 114.923 32.7445 113.512 32.7445H111.764V35.2737H113.007C113.007 35.2737 116.033 35.2737 118.316 34.9705V38.0063C116.667 37.8374 114.617 37.8374 113.007 37.8374H111.764C111.764 39.7256 111.764 41.9861 111.864 43.8398H108.333C108.601 41.917 108.704 39.5222 108.704 37.8374H107.664C105.95 37.8374 103.935 37.8374 102.321 38.0063V34.9705C104.47 35.2737 107.461 35.2737 107.664 35.2737H108.704V32.7445H107.258C104.03 32.7445 103.698 32.7791 102.351 32.8443V30.1463C104.065 30.2154 104.267 30.2154 105.813 30.2154C105.273 28.7647 104.872 27.9894 104.099 26.6424H100.469V36.4212C100.469 37.4651 100.504 39.1538 100.504 40.1977C100.504 42.4927 100.538 43.3677 100.603 44.5805H97.2414C97.4785 42.8611 97.4785 40.9384 97.4785 36.4519V30.2116C97.4785 28.6956 97.4785 27.6824 97.379 23.8062C98.8592 23.906 103.361 23.9405 104.975 23.9405H108.704V21.2079H105.075C101.747 21.2079 98.4194 21.277 95.0612 21.4766V18.1722C98.5227 18.3756 103.564 18.4408 105.075 18.4408H108.704C108.704 17.4967 108.67 15.2362 108.605 14.3267L112.334 14.6298C112.537 14.6298 113.007 14.6644 113.007 15.0674C113.007 15.4051 112.873 15.4703 111.798 15.9424C111.764 17.0899 111.764 17.1552 111.764 18.437H115.463C118.825 18.437 122.217 18.3679 125.579 18.1684V21.4728C121.211 21.2041 115.868 21.2041 115.463 21.2041L115.466 21.2079ZM107.434 26.6385C108.207 28.0892 108.578 28.899 109.083 30.2116H111.638C112.345 28.9988 112.747 28.2236 113.455 26.6385H107.438H107.434Z" fill="#5B5B5B"/>
<path d="M133.711 23.3726C131.182 23.3726 129.125 21.3079 129.125 18.771C129.125 16.2342 131.221 14.1694 133.711 14.1694C136.201 14.1694 138.297 16.1958 138.297 18.771C138.297 21.3462 136.258 23.3726 133.711 23.3726ZM133.711 14.5264C131.401 14.5264 129.477 16.4146 129.477 18.7749C129.477 21.1351 131.378 23.0195 133.711 23.0195C136.044 23.0195 137.941 21.1121 137.941 18.7749C137.941 16.4376 136.021 14.5264 133.711 14.5264ZM133.791 22.037C131.282 22.037 130.773 20.1872 130.773 18.8132C130.773 17.6158 131.244 15.5088 133.753 15.5088C135.164 15.5088 136.124 16.238 136.357 17.8077H135.378C135.279 16.5681 134.399 16.3532 133.753 16.3532C131.814 16.3532 131.775 18.299 131.775 18.8094C131.775 19.4196 131.833 21.1889 133.695 21.1889C134.675 21.1889 135.283 20.7744 135.401 19.6345H136.399C136.204 20.8742 135.558 22.0332 133.795 22.0332L133.791 22.037Z" fill="#5B5B5B"/>
<path d="M161.804 44.4116L143.185 25.7289C143.957 27.786 144.596 30.2154 144.933 32.6409L143.892 32.8789C143.521 29.9774 141.942 25.4603 140.832 22.6279C142.447 23.2343 147.052 25.0228 151.083 25.6637L150.815 26.7076C148.562 26.4044 146.111 25.7635 143.957 24.9537L162.576 43.6364L161.804 44.4116Z" fill="#5B5B5B"/>
<path d="M7.9632 58.9879C6.18085 61.3136 2.55113 66.5063 2.55113 74.2319V81.6505L2.2834 81.9191H0.267735L0 81.6505V73.8941C0 67.4197 2.42109 61.8202 6.11583 57.0651C8.93853 53.423 12.3655 50.2184 16.4351 47.9924L17.9153 50.3873C15.4942 51.7382 11.9678 53.7607 7.96703 58.9879H7.9632Z" fill="#5B5B5B"/>
<path d="M35.188 75.0378C33.7078 73.7905 32.0632 72.1709 31.1223 70.8891V73.7905C31.1223 75.5789 31.1911 78.3767 31.2906 80.0961H28.0319C28.1657 78.9831 28.4029 76.4885 28.4029 73.5525V71.0579C26.6205 73.8903 24.5704 75.8476 23.0596 76.9912L20.2025 75.0032C24.5398 72.7082 26.7544 68.3599 27.6302 66.6751H26.8921C25.3469 66.6751 23.3618 66.6751 21.851 66.8785V63.8427C23.5301 64.0462 25.213 64.1114 26.8921 64.1114H28.4373C28.4373 63.3707 28.4373 62.5609 28.3378 60.7725L31.3977 60.9759C31.5315 61.0104 32.002 61.0104 32.002 61.3788C32.002 61.682 31.4971 61.8854 31.2638 61.9852C31.1949 62.6261 31.1644 63.0291 31.1644 64.1114H31.9025C32.744 64.1114 35.1957 64.0423 36.9092 63.8427V66.8785C35.364 66.6751 33.6505 66.6751 31.5315 66.6751C33.4822 69.7454 35.5629 71.4954 37.1769 72.5086L35.1957 75.0378H35.188ZM37.2725 52.1756C37.1387 52.1756 37.0048 52.1411 36.5649 52.0413C31.9599 53.492 26.9533 54.2673 23.358 54.5359L21.3079 51.3313C21.8472 51.3659 22.3826 51.4004 23.2241 51.4004C25.1747 51.4004 30.6174 51.2315 34.6181 49.209L37.4064 51.504C37.6741 51.7074 37.6741 51.8763 37.6741 51.9415C37.6741 52.1795 37.4064 52.1795 37.2725 52.1795V52.1756ZM24.4672 60.9452C23.9279 59.1913 22.3826 57.1342 21.4073 56.3589L23.8934 54.8084C24.8688 55.718 26.2113 57.4067 26.9188 59.3256L24.4672 60.9452ZM29.4738 60.2352C29.0722 58.416 28.1963 56.6276 27.0221 55.2114L29.5082 53.8298C31.39 56.3935 31.8605 57.9094 32.0976 58.7537L29.4776 60.239L29.4738 60.2352ZM38.0757 55.6489C37.9419 55.9521 36.4961 59.1567 34.9853 61.0795L32.0938 60.001C33.4057 58.6194 34.9853 55.8523 35.4558 53.4268L38.615 54.7432C38.8177 54.8123 39.0166 54.912 39.0166 55.1154C39.0166 55.4877 38.615 55.553 38.0757 55.6566V55.6489ZM51.451 68.901C47.6186 73.8903 42.6464 77.4326 37.7392 79.5895L34.7826 76.8224C41.4722 75.3717 47.4847 69.6725 49.3359 66.1992L52.1586 68.0874C52.3957 68.2908 52.5296 68.3561 52.5296 68.5249C52.5296 68.9279 52.193 68.8972 51.4548 68.8972L51.451 68.901ZM48.3262 52.6477C45.0674 57.5717 41.9082 60.3695 40.1258 61.6513L37.2343 59.4944C39.4527 58.0783 43.6179 54.7048 46.0045 50.2222L48.9611 51.8763C49.1294 51.9761 49.2977 52.1449 49.2977 52.3138C49.2977 52.6515 48.9611 52.6515 48.3223 52.6515L48.3262 52.6477ZM50.4757 60.2697H50.0741C47.152 64.2496 43.4878 67.7881 40.2291 69.5765L37.2381 67.3505C38.2785 66.9783 40.0264 66.3719 43.4228 63.2709C46.3794 60.5729 47.4885 58.6501 47.9934 57.8096L50.7511 59.529C50.9194 59.6633 51.0877 59.7669 51.0877 59.932C51.0877 60.2697 50.6172 60.2697 50.4833 60.2697H50.4757Z" fill="#5B5B5B"/>
<path d="M81.7701 78.0084H75.8226C75.421 78.0084 72.2923 78.1772 72.1584 78.1772L72.1929 78.4459L68.9341 79.7277C68.8653 78.8182 68.8347 78.1772 68.4293 76.1202C66.9835 76.692 66.6813 76.7956 64.0614 77.7743C63.2543 78.0775 59.6935 79.4591 58.9515 79.7316C58.852 80.2036 58.6493 80.407 58.4466 80.407C58.2094 80.407 58.11 80.2382 58.0106 79.935L56.8669 76.7304C58.4466 76.527 59.1848 76.3581 62.6806 75.4831V68.4675H60.3284C60.3284 68.8397 60.4278 70.5246 60.4278 70.8623H57.3374C57.4368 69.7493 57.5057 66.5792 57.5057 65.3665V60.0395C57.5057 58.8268 57.4368 57.6447 57.3374 56.4319C58.4466 56.501 59.9268 56.5317 62.0763 56.5317H62.6806C62.6118 53.9028 62.5812 52.4866 62.4779 50.0918L65.7366 50.395C65.9049 50.395 66.2759 50.4641 66.2759 50.7673C66.2759 51.0052 66.2071 51.0359 65.6372 51.4427C65.5377 53.5689 65.5377 53.9028 65.5377 56.5356H66.8496C67.7217 56.5356 70.3799 56.4358 71.0493 56.4358C70.9804 57.6831 70.9154 59.1683 70.9154 59.84V64.0232C70.9154 65.8117 70.9842 66.5869 71.0493 68.5404C70.2422 68.5404 68.2266 68.4713 66.142 68.4713H65.5377V74.7424C66.1765 74.5735 67.1174 74.3049 67.89 74.1014C67.8211 73.898 67.2168 71.9753 66.5475 70.8623L68.9341 69.7839C70.3799 71.5032 71.4547 74.9765 71.4891 75.0456C72.8316 75.1453 74.1779 75.2144 75.5204 75.2144H77.5705V55.0158H76.7979C76.0597 55.0158 73.0687 55.1156 71.7224 55.1846V52.1489C72.9655 52.218 76.0597 52.3178 76.7979 52.3178H81.2997C82.0723 52.3178 85.0633 52.218 86.3752 52.1489V55.1846C85.1321 55.1156 82.0723 55.0158 81.2997 55.0158H80.7948V75.2144H82.0034C84.0191 75.2144 85.331 75.1453 87.144 75.0456V78.0813C85.4955 78.0468 83.4148 78.0122 81.7663 78.0122L81.7701 78.0084ZM62.6806 59.1223H60.3284V65.8002H62.6806V59.1223ZM67.9894 59.1223H65.5377V65.8002H67.9894V59.1223Z" fill="#5B5B5B"/>
<path d="M121.494 79.2212C121.058 79.1866 105.832 79.2903 102.875 78.9525C99.345 78.5496 98.5074 77.5364 96.9277 75.5138C96.7939 75.6481 95.1148 77.3675 94.1395 78.1427C94.1395 79.0523 94.1395 79.39 93.7034 79.39C93.5007 79.39 93.1986 79.0869 93.0647 78.8182L91.3856 75.5484C92.8964 75.1454 95.6197 73.1535 95.8224 72.9194V64.9942H94.3116C93.5046 64.9942 92.5637 65.0288 92.1621 65.094V62.2271C92.5637 62.2617 92.8352 62.2617 93.5046 62.2962C94.1089 62.3308 94.4455 62.2962 94.9503 62.2962H96.901C97.5053 62.2962 98.1096 62.2962 98.9855 62.2617C98.9166 62.6992 98.7828 64.691 98.7828 65.094V70.2521C100.16 68.6325 101.372 66.8786 102.378 63.7776C103.418 60.5385 103.522 58.0784 103.587 56.3245C101.804 56.3245 100.527 56.3245 99.4177 56.4934V53.4576C100.527 53.6956 102.646 53.7608 103.216 53.7608H103.721V51.6039C103.721 50.5908 103.686 49.9191 103.652 49.4471L106.88 49.85C107.385 49.9191 107.687 49.9844 107.687 50.3221C107.687 50.7251 107.385 50.8939 106.746 51.1319C106.746 51.5349 106.677 53.3924 106.677 53.7608C107.855 53.7608 109.465 53.6917 110.777 53.4576V55.8179C112.728 53.1199 113.397 50.3221 113.6 49.4087L116.189 50.4871C116.759 50.7251 116.828 50.8901 116.828 51.1281C116.828 51.5003 116.56 51.5656 115.853 51.6999C115.65 52.3408 115.551 52.5749 115.145 53.5881H119.245C120.221 53.5881 121.295 53.5881 122.236 53.3847V56.1518C121.162 56.0175 119.919 55.9484 119.245 55.9484H114.002C112.927 57.9057 112.824 58.1053 112.521 58.5466C113.229 58.5812 113.393 58.5812 114.942 58.5812H116.958C117.329 58.5812 119.108 58.5466 119.479 58.5121C119.85 58.4776 120.117 58.443 120.351 58.4123L121.965 60.6383C121.292 61.1103 120.217 62.2578 119.613 62.8297C119.242 63.1674 117.731 64.7179 117.429 65.0211V65.4932H118.167C119.039 65.4932 120.89 65.4241 122.267 65.2898V68.1221C120.989 68.0223 118.974 67.9532 118.167 67.9532H117.429V71.1578C117.429 71.5301 117.463 73.0461 117.463 73.3838C117.429 74.0247 117.161 74.8998 116.319 75.3718C115.581 75.8093 115.076 75.8093 112.992 75.8093L111.68 72.6393C112.789 72.9424 114.067 72.977 114.101 72.977C114.705 72.977 114.705 72.6047 114.705 71.6606V67.9494H114.101C113.393 67.9494 111.447 68.0185 110.001 68.1528V65.2859C111.378 65.4202 113.229 65.4893 114.101 65.4893H114.705V63.3631L115.746 63.6318L117.627 61.0681H115.141C114.101 61.0681 112.621 61.1372 111.982 61.1679V58.7731L109.427 57.4567C109.764 57.0844 109.997 56.8503 110.334 56.4128C109.324 56.313 107.679 56.313 107.006 56.313H106.298C106.264 56.8196 106.061 59.011 106.031 59.4831H108.046C109.19 59.4831 109.626 59.414 109.894 59.3833C109.894 59.9244 109.626 68.7937 107.339 73.5143C106.497 75.2336 105.358 75.3027 103.778 75.3027C103.541 75.3027 103.441 75.2682 103.239 75.2336L102.332 71.9292C102.6 71.9983 103.843 72.3322 104.115 72.3322C104.386 72.3322 104.818 72.2631 105.124 71.5224C105.828 69.8683 107.006 65.5546 107.04 61.7781H105.629C105.293 64.1384 104.42 66.5678 103.881 67.7114C102.871 69.9029 101.663 71.4227 100.454 72.9386L98.8057 71.6568C98.9051 73.6448 99.0428 74.1859 99.8155 74.9612C101.464 76.5462 102.875 76.5807 110.838 76.5807C115.31 76.5807 118.737 76.5117 122.837 75.9744L121.494 79.2135V79.2212ZM95.3481 58.5159C94.2389 54.7049 92.5904 52.6133 91.5157 51.366L94.2389 49.8155C95.6847 51.6385 97.0272 53.6956 98.2052 56.8964L95.3481 58.5159Z" fill="#5B5B5B"/>
<path d="M137.425 59.1223C137.122 59.7977 136.92 60.335 135.944 61.7205C136.415 62.0928 136.514 62.1925 136.514 62.4305C136.514 62.6339 136.445 62.6684 135.876 63.1712C135.776 64.384 135.776 66.5447 135.776 67.792V71.7373C135.776 73.7253 135.876 77.874 136.044 79.8966H132.414C132.582 77.0988 132.682 73.4567 132.682 70.5898V65.8347C131.236 67.3199 130.463 68.0606 129.121 69.0393L126.6 66.5447C129.66 64.9596 133.321 61.3521 135.508 56.3283L138.365 58.182C138.534 58.3163 138.568 58.4199 138.568 58.585C138.568 58.9879 138.499 58.9879 137.425 59.1261V59.1223ZM136.449 52.3791C133.963 55.6183 130.903 57.3377 129.76 57.875L127.17 55.3803C130.597 54.064 133.118 51.6384 134.732 49.3779L137.52 51.5041C137.555 51.5386 137.757 51.7075 137.757 51.9416C137.757 52.4137 137.252 52.4137 136.445 52.3791H136.449ZM151.672 63.2364V71.0273C151.672 72.6814 151.741 75.3449 151.741 76.9952C151.741 77.9047 151.607 79.1866 150.364 79.6586C149.591 79.9618 146.566 79.9618 146.061 79.8966L144.045 75.8515C145.021 76.0203 146.531 76.2238 147.507 76.2238C148.413 76.2238 148.413 75.886 148.413 74.1667V63.2403H144.749C143.101 63.2403 140.481 63.3094 138.866 63.5089V60.1354C140.679 60.3734 142.932 60.4041 144.948 60.4041H152.376C154.024 60.4041 156.074 60.335 157.684 60.1354V63.5089C155.902 63.3055 154.223 63.2403 151.668 63.2403L151.672 63.2364ZM151.435 54.6358H146.057C144.646 54.6358 142.596 54.7356 141.184 54.9044V51.2278C142.596 51.4312 144.883 51.4964 146.359 51.4964H151.232C152.678 51.4964 154.56 51.4273 155.971 51.2278V54.9044C154.46 54.6703 152.946 54.6358 151.435 54.6358Z" fill="#5B5B5B"/>
<path d="M162.599 47.9924C166.665 50.2183 170.092 53.4536 172.949 57.1303C176.713 62.0197 179 67.6844 179 73.8902V81.6466L178.732 81.9152H176.717L176.449 81.6466V74.228C176.449 66.5062 172.819 61.3136 171.037 58.984C167.036 53.7568 163.51 51.7343 161.089 50.3833L162.599 47.9885V47.9924Z" fill="#5B5B5B"/>
<path d="M104.053 8.12859C101.364 5.90263 97.3332 2.52915 89.5 2.52915C81.6668 2.52915 77.6011 5.90263 74.9467 8.12859L73.3671 6.34014C76.4269 3.74191 80.7948 0 89.5 0C98.2052 0 102.573 3.74191 105.633 6.34014L104.053 8.12859Z" fill="#5B5B5B"/>
<path d="M32.4609 95.0906V96.4031H29.2405V104.835H27.7526V96.4031H24.5322V95.0906H32.4571H32.4609Z" fill="#5B5B5B"/>
<path d="M38.9784 103.783V104.839C38.7795 104.866 38.5538 104.881 38.3091 104.881C37.873 104.881 37.5479 104.8 37.3337 104.643C37.1195 104.482 36.9895 104.229 36.9436 103.883C36.4693 104.632 35.7082 105.004 34.6526 105.004C33.8799 105.004 33.268 104.82 32.8167 104.451C32.3653 104.083 32.1435 103.568 32.1435 102.912C32.1435 101.634 33.027 100.905 34.7902 100.721L35.8268 100.609C36.1901 100.563 36.4579 100.471 36.6261 100.329C36.7944 100.187 36.8786 99.9839 36.8786 99.7191C36.8786 99.3622 36.7677 99.1051 36.5458 98.9477C36.324 98.7865 35.953 98.7098 35.4328 98.7098C34.8706 98.7098 34.4651 98.8019 34.2204 98.9899C33.9756 99.178 33.834 99.508 33.7958 99.9839H32.4457C32.5451 98.4066 33.5395 97.616 35.4328 97.616C37.3261 97.616 38.2134 98.3106 38.2134 99.6961V103.43C38.2134 103.668 38.3396 103.787 38.5959 103.787H38.9784V103.783ZM36.3049 103.442C36.6873 103.112 36.8786 102.647 36.8786 102.045V101.304C36.7065 101.45 36.4158 101.546 36.0065 101.592L35.0236 101.703C34.4957 101.769 34.1171 101.891 33.8914 102.079C33.6658 102.267 33.551 102.528 33.551 102.866C33.551 103.204 33.6619 103.465 33.8838 103.653C34.1056 103.841 34.4307 103.933 34.8591 103.933C35.4405 103.933 35.9224 103.768 36.3049 103.442Z" fill="#5B5B5B"/>
<path d="M40.493 96.7754V95.3093H41.8853V96.7754H40.493ZM40.5083 104.835V97.7732H41.8738V104.835H40.5083Z" fill="#5B5B5B"/>
<path d="M49.4124 98.2607C49.8484 98.6944 50.0664 99.3085 50.0664 100.103V104.839H48.701V100.295C48.701 99.3085 48.2038 98.8172 47.2131 98.8172C46.758 98.8172 46.3487 98.9899 45.9854 99.3353C45.622 99.6922 45.4384 100.199 45.4384 100.855V104.839H44.073V97.7772H45.3811V98.8326C45.9165 98.0189 46.6547 97.616 47.5918 97.616C48.3644 97.616 48.9687 97.8309 49.4047 98.2646L49.4124 98.2607Z" fill="#5B5B5B"/>
<path d="M58.7296 103.783V104.839C58.5307 104.866 58.3051 104.881 58.0603 104.881C57.6242 104.881 57.2991 104.8 57.085 104.643C56.8708 104.482 56.7407 104.229 56.6948 103.883C56.2205 104.632 55.4594 105.004 54.4038 105.004C53.6312 105.004 53.0192 104.82 52.5679 104.451C52.1166 104.083 51.8947 103.568 51.8947 102.912C51.8947 101.634 52.7782 100.905 54.5415 100.721L55.578 100.609C55.9413 100.563 56.2091 100.471 56.3774 100.329C56.5457 100.187 56.6298 99.9839 56.6298 99.7191C56.6298 99.3622 56.5189 99.1051 56.297 98.9477C56.0752 98.7865 55.7042 98.7098 55.184 98.7098C54.6218 98.7098 54.2164 98.8019 53.9716 98.9899C53.7268 99.178 53.5853 99.508 53.547 99.9839H52.1969C52.2963 98.4066 53.2908 97.616 55.184 97.616C57.0773 97.616 57.9647 98.3106 57.9647 99.6961V103.43C57.9647 103.668 58.0909 103.787 58.3471 103.787H58.7296V103.783ZM56.0561 103.442C56.4386 103.112 56.6298 102.647 56.6298 102.045V101.304C56.4577 101.45 56.167 101.546 55.7578 101.592L54.7748 101.703C54.247 101.769 53.8683 101.891 53.6426 102.079C53.417 102.267 53.3022 102.528 53.3022 102.866C53.3022 103.204 53.4132 103.465 53.635 103.653C53.8568 103.841 54.1819 103.933 54.6103 103.933C55.1917 103.933 55.6736 103.768 56.0561 103.442Z" fill="#5B5B5B"/>
<path d="M65.6448 98.2607C66.0809 98.6944 66.2989 99.3085 66.2989 100.103V104.839H64.9334V100.295C64.9334 99.3085 64.4362 98.8172 63.4456 98.8172C62.9904 98.8172 62.5812 98.9899 62.2178 99.3353C61.8545 99.6922 61.6709 100.199 61.6709 100.855V104.839H60.3054V97.7772H61.6135V98.8326C62.149 98.0189 62.8871 97.616 63.8242 97.616C64.5968 97.616 65.2011 97.8309 65.6372 98.2646L65.6448 98.2607Z" fill="#5B5B5B"/>
<path d="M72.6557 95.0906C73.7113 95.0906 74.5298 95.3669 75.1112 95.9195C75.6925 96.4722 75.9832 97.2206 75.9832 98.1724C75.9832 99.1242 75.6925 99.8572 75.1112 100.41C74.5298 100.963 73.7113 101.239 72.6557 101.239H69.9821V104.839H68.5211V95.0944H72.6557V95.0906ZM72.6289 99.9493C73.237 99.9493 73.7036 99.7958 74.0211 99.4926C74.3386 99.1856 74.4992 98.7481 74.4992 98.1724C74.4992 97.5967 74.3386 97.1553 74.0211 96.8445C73.7036 96.5336 73.2408 96.3801 72.6289 96.3801H69.9821V99.9531H72.6289V99.9493Z" fill="#5B5B5B"/>
<path d="M81.5904 97.6774V98.9784H81.25C80.55 98.9784 80.0069 99.1511 79.6283 99.4965C79.2458 99.8419 79.0545 100.345 79.0545 101.001V104.831H77.6891V97.7695H78.9972V99.0283C79.4408 98.1149 80.1752 97.6582 81.1926 97.6582C81.3915 97.6582 81.5253 97.662 81.5865 97.6736L81.5904 97.6774Z" fill="#5B5B5B"/>
<path d="M83.2427 96.7754V95.3093H84.6349V96.7754H83.2427ZM83.258 104.835V97.7732H84.6234V104.835H83.258Z" fill="#5B5B5B"/>
<path d="M91.9976 95.0906H93.363V104.835H92.055V103.795C91.5271 104.597 90.7507 105 89.7218 105C88.693 105 87.9586 104.666 87.3772 104.002C86.7959 103.338 86.5052 102.436 86.5052 101.308C86.5052 100.18 86.7959 99.2777 87.3772 98.6137C87.9586 97.9459 88.7427 97.6159 89.7218 97.6159C90.701 97.6159 91.4736 97.9882 92.0014 98.7365V95.0944L91.9976 95.0906ZM89.9781 103.822C90.6245 103.822 91.1294 103.599 91.4927 103.15C91.8561 102.72 92.0397 102.106 92.0397 101.304C92.0397 100.502 91.8561 99.8917 91.4927 99.4427C91.1294 99.0052 90.6245 98.7864 89.9781 98.7864C89.3317 98.7864 88.8498 99.0129 88.4788 99.4696C88.1078 99.9263 87.9204 100.556 87.9204 101.358C87.9204 102.16 88.1078 102.751 88.4788 103.177C88.8536 103.607 89.3508 103.822 89.9781 103.822Z" fill="#5B5B5B"/>
<path d="M101.942 101.757H96.637C96.7021 102.452 96.9048 102.974 97.249 103.323C97.5932 103.676 98.0637 103.849 98.6527 103.849C99.5439 103.849 100.125 103.457 100.397 102.67H101.774C101.582 103.392 101.211 103.96 100.661 104.374C100.11 104.789 99.4291 104.996 98.6221 104.996C97.6124 104.996 96.7977 104.658 96.1819 103.983C95.5623 103.308 95.2563 102.413 95.2563 101.3C95.2563 100.187 95.5661 99.2931 96.1819 98.6177C96.8015 97.9422 97.6047 97.6045 98.5953 97.6045C99.5859 97.6045 100.45 97.9576 101.051 98.6599C101.644 99.3622 101.938 100.26 101.938 101.354V101.749L101.942 101.757ZM97.2834 99.2509C96.943 99.581 96.7327 100.053 96.6485 100.675H100.534C100.469 100.099 100.267 99.6386 99.9264 99.2855C99.5859 98.9324 99.1423 98.7597 98.5953 98.7597C98.0484 98.7597 97.62 98.9247 97.2796 99.2509H97.2834Z" fill="#5B5B5B"/>
<path d="M107.97 95.0906C109.026 95.0906 109.844 95.3669 110.425 95.9195C111.007 96.4722 111.297 97.2206 111.297 98.1724C111.297 99.1242 111.007 99.8572 110.425 100.41C109.844 100.963 109.026 101.239 107.97 101.239H105.296V104.839H103.835V95.0944H107.97V95.0906ZM107.943 99.9493C108.551 99.9493 109.018 99.7958 109.335 99.4926C109.653 99.1856 109.813 98.7481 109.813 98.1724C109.813 97.5967 109.653 97.1553 109.335 96.8445C109.018 96.5336 108.555 96.3801 107.943 96.3801H105.296V99.9531H107.943V99.9493Z" fill="#5B5B5B"/>
<path d="M119.085 103.783V104.839C118.886 104.866 118.66 104.881 118.415 104.881C117.979 104.881 117.654 104.8 117.44 104.643C117.226 104.482 117.096 104.229 117.05 103.883C116.576 104.632 115.815 105.004 114.759 105.004C113.986 105.004 113.374 104.82 112.923 104.451C112.472 104.083 112.25 103.568 112.25 102.912C112.25 101.634 113.133 100.905 114.897 100.721L115.933 100.609C116.296 100.563 116.564 100.471 116.732 100.329C116.901 100.187 116.985 99.9839 116.985 99.7191C116.985 99.3622 116.874 99.1051 116.652 98.9477C116.43 98.7865 116.059 98.7098 115.539 98.7098C114.977 98.7098 114.571 98.8019 114.327 98.9899C114.082 99.178 113.94 99.508 113.902 99.9839H112.552C112.651 98.4066 113.646 97.616 115.539 97.616C117.432 97.616 118.32 98.3106 118.32 99.6961V103.43C118.32 103.668 118.446 103.787 118.702 103.787H119.085V103.783ZM116.411 103.442C116.794 103.112 116.985 102.647 116.985 102.045V101.304C116.813 101.45 116.522 101.546 116.113 101.592L115.13 101.703C114.602 101.769 114.223 101.891 113.998 102.079C113.772 102.267 113.657 102.528 113.657 102.866C113.657 103.204 113.768 103.465 113.99 103.653C114.212 103.841 114.537 103.933 114.965 103.933C115.547 103.933 116.029 103.768 116.411 103.442Z" fill="#5B5B5B"/>
<path d="M124.569 97.6774V98.9784H124.229C123.529 98.9784 122.986 99.1511 122.607 99.4965C122.225 99.8419 122.034 100.345 122.034 101.001V104.831H120.668V97.7695H121.976V99.0283C122.42 98.1149 123.154 97.6582 124.172 97.6582C124.371 97.6582 124.504 97.662 124.566 97.6736L124.569 97.6774Z" fill="#5B5B5B"/>
<path d="M132.223 103.783V104.839C132.024 104.866 131.798 104.881 131.554 104.881C131.117 104.881 130.792 104.8 130.578 104.643C130.364 104.482 130.234 104.229 130.188 103.883C129.714 104.632 128.953 105.004 127.897 105.004C127.124 105.004 126.512 104.82 126.061 104.451C125.61 104.083 125.388 103.568 125.388 102.912C125.388 101.634 126.271 100.905 128.035 100.721L129.071 100.609C129.435 100.563 129.702 100.471 129.871 100.329C130.039 100.187 130.123 99.9839 130.123 99.7191C130.123 99.3622 130.012 99.1051 129.79 98.9477C129.568 98.7865 129.197 98.7098 128.677 98.7098C128.115 98.7098 127.71 98.8019 127.465 98.9899C127.22 99.178 127.078 99.508 127.04 99.9839H125.69C125.79 98.4066 126.784 97.616 128.677 97.616C130.571 97.616 131.458 98.3106 131.458 99.6961V103.43C131.458 103.668 131.584 103.787 131.84 103.787H132.223V103.783ZM129.549 103.442C129.932 103.112 130.123 102.647 130.123 102.045V101.304C129.951 101.45 129.66 101.546 129.251 101.592L128.268 101.703C127.74 101.769 127.362 101.891 127.136 102.079C126.91 102.267 126.795 102.528 126.795 102.866C126.795 103.204 126.906 103.465 127.128 103.653C127.35 103.841 127.675 103.933 128.104 103.933C128.685 103.933 129.167 103.768 129.549 103.442Z" fill="#5B5B5B"/>
<path d="M138.905 95.0906H140.27V104.835H138.962V103.795C138.434 104.597 137.658 105 136.629 105C135.6 105 134.866 104.666 134.284 104.002C133.703 103.338 133.412 102.436 133.412 101.308C133.412 100.18 133.703 99.2777 134.284 98.6137C134.866 97.9459 135.65 97.6159 136.629 97.6159C137.608 97.6159 138.381 97.9882 138.909 98.7365V95.0944L138.905 95.0906ZM136.885 103.822C137.532 103.822 138.037 103.599 138.4 103.15C138.763 102.72 138.947 102.106 138.947 101.304C138.947 100.502 138.763 99.8917 138.4 99.4427C138.037 99.0052 137.532 98.7864 136.885 98.7864C136.239 98.7864 135.757 99.0129 135.386 99.4696C135.015 99.9263 134.828 100.556 134.828 101.358C134.828 102.16 135.015 102.751 135.386 103.177C135.761 103.607 136.258 103.822 136.885 103.822Z" fill="#5B5B5B"/>
<path d="M148.849 101.757H143.544C143.609 102.452 143.812 102.974 144.156 103.323C144.5 103.676 144.971 103.849 145.56 103.849C146.451 103.849 147.032 103.457 147.304 102.67H148.681C148.49 103.392 148.119 103.96 147.568 104.374C147.017 104.789 146.336 104.996 145.529 104.996C144.52 104.996 143.705 104.658 143.089 103.983C142.473 103.308 142.163 102.413 142.163 101.3C142.163 100.187 142.473 99.2931 143.089 98.6177C143.709 97.9422 144.512 97.6045 145.502 97.6045C146.493 97.6045 147.358 97.9576 147.958 98.6599C148.551 99.3622 148.845 100.26 148.845 101.354V101.749L148.849 101.757ZM144.191 99.2509C143.85 99.581 143.64 100.053 143.556 100.675H147.442C147.377 100.099 147.174 99.6386 146.834 99.2855C146.493 98.9324 146.049 98.7597 145.502 98.7597C144.956 98.7597 144.527 98.9247 144.187 99.2509H144.191Z" fill="#5B5B5B"/>
<path d="M17.529 87.2884C18.336 87.2884 19.2081 86.682 20.2178 85.4692C21.0899 84.3563 22.0652 83.7844 23.1094 83.7844C24.1535 83.7844 25.1594 84.4253 26.1348 85.6381C27.1101 86.7165 27.9477 87.2922 28.7241 87.2922C29.5006 87.2922 30.2349 86.7204 31.0764 85.6381C32.0173 84.4253 33.092 83.7844 34.3351 83.7844C35.4099 83.7844 36.4196 84.4253 37.3605 85.6727C38.3014 86.7511 39.1429 87.2922 39.9499 87.2922C40.7569 87.2922 41.5639 86.7511 42.436 85.7417C43.3769 84.4599 44.3866 83.7844 45.5609 83.7844C46.5017 83.7844 47.4771 84.4253 48.5518 85.6381C49.4927 86.7165 50.3342 87.2922 51.1412 87.2922V88.3707C49.9326 88.3707 48.8884 87.7988 47.9819 86.5515C47.041 85.4385 46.234 84.8974 45.5609 84.8974C44.6888 84.8974 43.8818 85.4385 43.0747 86.5515C42.1683 87.7988 41.1241 88.3707 39.9499 88.3707C38.6724 88.3707 37.6321 87.7988 36.7562 86.6513C35.8497 85.4692 35.0771 84.8974 34.3351 84.8974C33.4936 84.8974 32.6866 85.4385 31.8146 86.5515C30.9081 87.7988 29.8983 88.3707 28.7241 88.3707C27.615 88.3707 26.5746 87.7643 25.5649 86.4824C24.6584 85.404 23.8858 84.8974 23.1132 84.8974C22.3406 84.8974 21.6024 85.4385 20.7609 86.5515C19.7512 87.7988 18.6764 88.3707 17.5328 88.3707V87.2922L17.529 87.2884Z" fill="#5B5B5B"/>
<path d="M53.3902 87.2884C54.1972 87.2884 55.0693 86.682 56.079 85.4692C56.9511 84.3563 57.9264 83.7844 58.9706 83.7844C60.0147 83.7844 61.0206 84.4253 61.996 85.6381C62.9713 86.7165 63.8089 87.2922 64.5853 87.2922C65.3618 87.2922 66.0961 86.7204 66.9376 85.6381C67.8785 84.4253 68.9533 83.7844 70.1963 83.7844C71.2711 83.7844 72.2808 84.4253 73.2217 85.6727C74.1626 86.7511 75.0041 87.2922 75.8111 87.2922C76.6181 87.2922 77.4252 86.7511 78.2972 85.7417C79.2381 84.4599 80.2479 83.7844 81.4221 83.7844C82.363 83.7844 83.3383 84.4253 84.413 85.6381C85.3539 86.7165 86.1954 87.2922 87.0024 87.2922V88.3707C85.7938 88.3707 84.7496 87.7988 83.8431 86.5515C82.9023 85.4385 82.0952 84.8974 81.4221 84.8974C80.55 84.8974 79.743 85.4385 78.9359 86.5515C78.0295 87.7988 76.9853 88.3707 75.8111 88.3707C74.5336 88.3707 73.4933 87.7988 72.6174 86.6513C71.7109 85.4692 70.9383 84.8974 70.1963 84.8974C69.3549 84.8974 68.5478 85.4385 67.6758 86.5515C66.7693 87.7988 65.7596 88.3707 64.5853 88.3707C63.4762 88.3707 62.4358 87.7643 61.4261 86.4824C60.5196 85.404 59.747 84.8974 58.9744 84.8974C58.2018 84.8974 57.4636 85.4385 56.6221 86.5515C55.6124 87.7988 54.5376 88.3707 53.394 88.3707V87.2922L53.3902 87.2884Z" fill="#5B5B5B"/>
<path d="M89.2476 87.2884C90.0546 87.2884 90.9266 86.682 91.9364 85.4692C92.8084 84.3563 93.7838 83.7844 94.8279 83.7844C95.8721 83.7844 96.878 84.4253 97.8533 85.6381C98.8286 86.7165 99.6663 87.2922 100.443 87.2922C101.219 87.2922 101.954 86.7204 102.795 85.6381C103.736 84.4253 104.811 83.7844 106.054 83.7844C107.128 83.7844 108.138 84.4253 109.079 85.6727C110.02 86.7511 110.861 87.2922 111.668 87.2922C112.475 87.2922 113.283 86.7511 114.155 85.7417C115.095 84.4599 116.105 83.7844 117.279 83.7844C118.22 83.7844 119.196 84.4253 120.27 85.6381C121.211 86.7165 122.053 87.2922 122.86 87.2922V88.3707C121.651 88.3707 120.607 87.7988 119.701 86.5515C118.76 85.4385 117.953 84.8974 117.279 84.8974C116.407 84.8974 115.6 85.4385 114.793 86.5515C113.887 87.7988 112.843 88.3707 111.668 88.3707C110.391 88.3707 109.351 87.7988 108.475 86.6513C107.568 85.4692 106.796 84.8974 106.054 84.8974C105.212 84.8974 104.405 85.4385 103.533 86.5515C102.627 87.7988 101.617 88.3707 100.443 88.3707C99.3335 88.3707 98.2932 87.7643 97.2834 86.4824C96.377 85.404 95.6044 84.8974 94.8317 84.8974C94.0591 84.8974 93.321 85.4385 92.4795 86.5515C91.4698 87.7988 90.395 88.3707 89.2514 88.3707V87.2922L89.2476 87.2884Z" fill="#5B5B5B"/>
<path d="M125.109 87.2884C125.916 87.2884 126.788 86.682 127.798 85.4692C128.67 84.3563 129.645 83.7844 130.689 83.7844C131.733 83.7844 132.739 84.4253 133.715 85.6381C134.69 86.7165 135.527 87.2922 136.304 87.2922C137.08 87.2922 137.815 86.7204 138.656 85.6381C139.597 84.4253 140.672 83.7844 141.915 83.7844C142.99 83.7844 143.999 84.4253 144.94 85.6727C145.881 86.7511 146.723 87.2922 147.53 87.2922C148.337 87.2922 149.144 86.7511 150.016 85.7417C150.957 84.4599 151.966 83.7844 153.141 83.7844C154.082 83.7844 155.057 84.4253 156.132 85.6381C157.072 86.7165 157.914 87.2922 158.721 87.2922V88.3707C157.512 88.3707 156.468 87.7988 155.562 86.5515C154.621 85.4385 153.814 84.8974 153.141 84.8974C152.269 84.8974 151.462 85.4385 150.655 86.5515C149.748 87.7988 148.704 88.3707 147.53 88.3707C146.252 88.3707 145.212 87.7988 144.336 86.6513C143.429 85.4692 142.657 84.8974 141.915 84.8974C141.073 84.8974 140.266 85.4385 139.394 86.5515C138.488 87.7988 137.478 88.3707 136.304 88.3707C135.195 88.3707 134.154 87.7643 133.145 86.4824C132.238 85.404 131.466 84.8974 130.693 84.8974C129.92 84.8974 129.182 85.4385 128.341 86.5515C127.331 87.7988 126.256 88.3707 125.113 88.3707V87.2922L125.109 87.2884Z" fill="#5B5B5B"/>
</g>
<defs>
<clipPath id="clip0_4_178">
<rect width="179" height="105" fill="white"/>
</clipPath>
</defs>
</svg>
